<svg xmlns="http://www.w3.org/2000/svg" width="18.145" height="18.145" viewBox="0 0 18.145 18.145">
  <path id="Icon_awesome-expand-arrows-alt" data-name="Icon awesome-expand-arrows-alt" d="M18.145,14.887v4.536a.97.97,0,0,1-.972.972H12.637a.973.973,0,0,1-.689-1.661l1.466-1.466L9.073,12.926,4.729,17.272,6.2,18.734A.973.973,0,0,1,5.508,20.4H.972A.97.97,0,0,1,0,19.423V14.887A.973.973,0,0,1,1.661,14.2l1.466,1.466,4.345-4.342L3.126,6.977,1.661,8.447A.973.973,0,0,1,0,7.758V3.222A.97.97,0,0,1,.972,2.25H5.508A.973.973,0,0,1,6.2,3.911L4.731,5.377,9.073,9.719l4.343-4.346L11.948,3.911a.973.973,0,0,1,.689-1.661h4.536a.97.97,0,0,1,.972.972V7.758a.973.973,0,0,1-1.661.689L15.019,6.981l-4.345,4.342,4.345,4.346L16.484,14.2A.971.971,0,0,1,18.145,14.887Z" transform="translate(0 -2.25)" fill="#fff"/>
</svg>
