<svg xmlns="http://www.w3.org/2000/svg" width="58" height="58" viewBox="0 0 97.67 97.67">
<defs><style>.cls-1{fill:#fff;}</style></defs>
<g id="Layer_2" data-name="Layer 2">
<g id="Layer_1-2" data-name="Layer 1">
<path class="cls-1" d="M64.25,31.62H55.64a1.77,1.77,0,0,0-1.3.54,1.85,1.85,0,0,0,0,2.61l2.78,2.77-8.24,8.25-8.24-8.24,2.79-2.78A1.85,1.85,0,0,0,44,33.45a1.83,1.83,0,0,0-1.85-1.83H33.5a1.83,1.83,0,0,0-1.83,1.84v8.61a1.81,1.81,0,0,0,.54,1.3,1.85,1.85,0,0,0,2.61,0l2.78-2.79,8.24,8.25L37.6,57.07l-2.78-2.78a1.85,1.85,0,0,0-3.15,1.3v8.63a1.83,1.83,0,0,0,1.84,1.83h8.61a1.8,1.8,0,0,0,1.33-.55,1.84,1.84,0,0,0,0-2.61l-2.79-2.77,8.24-8.25,8.24,8.24-2.78,2.78A1.85,1.85,0,0,0,55.64,66h8.62A1.84,1.84,0,0,0,66.1,64.2V55.59a1.85,1.85,0,0,0-3.16-1.3l-2.78,2.79-8.24-8.25,8.24-8.24,2.78,2.78a1.85,1.85,0,0,0,3.16-1.3V33.46h0A1.84,1.84,0,0,0,64.25,31.62Z"/>
<path class="cls-1" d="M83.36,14.3A48.5,48.5,0,0,0,48.84,0h0A48.84,48.84,0,1,0,83.36,14.3ZM48.84,97.1h0a48.27,48.27,0,0,1,0-96.53h0a48.27,48.27,0,0,1,0,96.53Z"/></g></g></svg>
