<svg xmlns="http://www.w3.org/2000/svg" viewBox="0 0 97.67 97.67"><defs><style>.cls-1{fill:#fff;}</style></defs><g id="Layer_2" data-name="Layer 2"><g id="Layer_1-2" data-name="Layer 1"><g id="Ellipse_1" data-name="Ellipse 1"><path class="cls-1" d="M83.36,14.3A48.51,48.51,0,0,0,48.83,0h0A48.84,48.84,0,0,0,14.3,83.37a48.54,48.54,0,0,0,34.53,14.3h0A48.83,48.83,0,0,0,83.36,14.3ZM66.1,42.07a1.85,1.85,0,0,1-3.16,1.3l-2.78-2.78-8.24,8.24,8.24,8.25,2.78-2.79a1.85,1.85,0,0,1,3.16,1.3V64.2A1.84,1.84,0,0,1,64.26,66H55.64a1.85,1.85,0,0,1-1.3-3.15l2.78-2.78-8.24-8.24-8.24,8.25,2.79,2.77a1.84,1.84,0,0,1,0,2.61,1.8,1.8,0,0,1-1.33.55H33.51a1.83,1.83,0,0,1-1.84-1.83V55.59a1.85,1.85,0,0,1,3.15-1.3l2.78,2.78,8.24-8.24L37.6,40.58l-2.78,2.79a1.85,1.85,0,0,1-2.61,0,1.81,1.81,0,0,1-.54-1.3V33.46a1.84,1.84,0,0,1,1.83-1.85h8.62A1.84,1.84,0,0,1,44,33.45a1.87,1.87,0,0,1-.54,1.32l-2.79,2.78,8.24,8.24,8.24-8.25-2.78-2.77a1.85,1.85,0,0,1,0-2.61,1.82,1.82,0,0,1,1.3-.55h8.61a1.85,1.85,0,0,1,1.85,1.84Z"/></g></g></g></svg>